<svg xmlns="http://www.w3.org/2000/svg" xmlns:xlink="http://www.w3.org/1999/xlink" width="24" height="24" viewBox="0 0 24 24">
    <defs>
        <path id="a" d="M2 3v13h16V3H2zm4-3v1h3V0h2v1h3V0h2v1h2a2 2 0 0 1 2 2v13a2 2 0 0 1-2 2H2a2 2 0 0 1-2-2V3a2 2 0 0 1 2-2h2V0h2zm10 12h-2v2h2v-2zm-3 0h-2v2h2v-2zm-3 0H8v2h2v-2zm6-3h-2v2h2V9zm-3 0h-2v2h2V9zm-3 0H8v2h2V9zm8-4H2v2h16V5zM6 3H4v1h2V3zm5 0H9v1h2V3zm5 0h-2v1h2V3z"/>
    </defs>
    <g fill="none" fill-rule="evenodd" transform="translate(2 3)">
        <mask id="b" fill="#fff">
            <use xlink:href="#a"/>
        </mask>
        <g fill="#333" mask="url(#b)">
            <path d="M-2-3h24v24H-2z"/>
            <path fill-rule="nonzero" d="M-2-3h24v24H-2z"/>
        </g>
    </g>
</svg>
